<?xml version="1.0" encoding="UTF-8" standalone="no"?>
<!DOCTYPE svg PUBLIC "-//W3C//DTD SVG 1.1//EN"
 "http://www.w3.org/Graphics/SVG/1.1/DTD/svg11.dtd">
<!-- Generated by graphviz version 2.43.0 (0)
 -->
<!-- Title: dependency&#45;cruiser output Pages: 1 -->
<svg width="548pt" height="488pt"
 viewBox="0.00 0.00 548.00 488.00" xmlns="http://www.w3.org/2000/svg" xmlns:xlink="http://www.w3.org/1999/xlink">
<g id="graph0" class="graph" transform="scale(1 1) rotate(0) translate(4 484)">
<title>dependency&#45;cruiser output</title>
<polygon fill="white" stroke="transparent" points="-4,4 -4,-484 544,-484 544,4 -4,4"/>
<g id="clust1" class="cluster">
<title>cluster_src</title>
<path fill="#ffffff" stroke="black" stroke-width="2" d="M20,-8C20,-8 520,-8 520,-8 526,-8 532,-14 532,-20 532,-20 532,-460 532,-460 532,-466 526,-472 520,-472 520,-472 20,-472 20,-472 14,-472 8,-466 8,-460 8,-460 8,-20 8,-20 8,-14 14,-8 20,-8"/>
<text text-anchor="middle" x="270" y="-460.8" font-family="Helvetica,sans-Serif" font-weight="bold" font-size="9.00">src</text>
</g>
<g id="clust2" class="cluster">
<title>cluster_src/api</title>
<path fill="#ffffff" stroke="black" stroke-width="2" d="M369.5,-334C369.5,-334 512,-334 512,-334 518,-334 524,-340 524,-346 524,-346 524,-434 524,-434 524,-440 518,-446 512,-446 512,-446 369.5,-446 369.5,-446 363.5,-446 357.5,-440 357.5,-434 357.5,-434 357.5,-346 357.5,-346 357.5,-340 363.5,-334 369.5,-334"/>
<text text-anchor="middle" x="440.75" y="-434.8" font-family="Helvetica,sans-Serif" font-weight="bold" font-size="9.00">api</text>
</g>
<g id="clust3" class="cluster">
<title>cluster_src/libraries</title>
<path fill="#ffffff" stroke="black" stroke-width="2" d="M46,-230C46,-230 434,-230 434,-230 440,-230 446,-236 446,-242 446,-242 446,-314 446,-314 446,-320 440,-326 434,-326 434,-326 46,-326 46,-326 40,-326 34,-320 34,-314 34,-314 34,-242 34,-242 34,-236 40,-230 46,-230"/>
<text text-anchor="middle" x="240" y="-314.8" font-family="Helvetica,sans-Serif" font-weight="bold" font-size="9.00">libraries</text>
</g>
<g id="clust4" class="cluster">
<title>cluster_src/services</title>
<path fill="#ffffff" stroke="black" stroke-width="2" d="M28,-16C28,-16 110,-16 110,-16 116,-16 122,-22 122,-28 122,-28 122,-210 122,-210 122,-216 116,-222 110,-222 110,-222 28,-222 28,-222 22,-222 16,-216 16,-210 16,-210 16,-28 16,-28 16,-22 22,-16 28,-16"/>
<text text-anchor="middle" x="69" y="-210.8" font-family="Helvetica,sans-Serif" font-weight="bold" font-size="9.00">services</text>
</g>
<g id="clust5" class="cluster">
<title>cluster_src/services/packages</title>
<path fill="#ffffff" stroke="black" stroke-width="2" d="M36,-114C36,-114 102,-114 102,-114 108,-114 114,-120 114,-126 114,-126 114,-184 114,-184 114,-190 108,-196 102,-196 102,-196 36,-196 36,-196 30,-196 24,-190 24,-184 24,-184 24,-126 24,-126 24,-120 30,-114 36,-114"/>
<text text-anchor="middle" x="69" y="-184.8" font-family="Helvetica,sans-Serif" font-weight="bold" font-size="9.00">packages</text>
</g>
<g id="clust6" class="cluster">
<title>cluster_src/services/projects</title>
<path fill="#ffffff" stroke="black" stroke-width="2" d="M36,-24C36,-24 102,-24 102,-24 108,-24 114,-30 114,-36 114,-36 114,-94 114,-94 114,-100 108,-106 102,-106 102,-106 36,-106 36,-106 30,-106 24,-100 24,-94 24,-94 24,-36 24,-36 24,-30 30,-24 36,-24"/>
<text text-anchor="middle" x="69" y="-94.8" font-family="Helvetica,sans-Serif" font-weight="bold" font-size="9.00">projects</text>
</g>
<!-- src/api/mocks.ts -->
<g id="node1" class="node">
<title>src/api/mocks.ts</title>
<g id="a_node1"><a xlink:href="src/api/mocks.ts" xlink:title="mocks.ts">
<path fill="#ddfeff" stroke="black" d="M422,-420C422,-420 377,-420 377,-420 374,-420 371,-417 371,-414 371,-414 371,-408 371,-408 371,-405 374,-402 377,-402 377,-402 422,-402 422,-402 425,-402 428,-405 428,-408 428,-408 428,-414 428,-414 428,-417 425,-420 422,-420"/>
<text text-anchor="start" x="379" y="-408.8" font-family="Helvetica,sans-Serif" font-size="9.00">mocks.ts</text>
</a>
</g>
</g>
<!-- src/api/resolvers.ts -->
<g id="node2" class="node">
<title>src/api/resolvers.ts</title>
<g id="a_node2"><a xlink:href="src/api/resolvers.ts" xlink:title="resolvers.ts">
<path fill="#ddfeff" stroke="black" d="M427.5,-390C427.5,-390 371.5,-390 371.5,-390 368.5,-390 365.5,-387 365.5,-384 365.5,-384 365.5,-378 365.5,-378 365.5,-375 368.5,-372 371.5,-372 371.5,-372 427.5,-372 427.5,-372 430.5,-372 433.5,-375 433.5,-378 433.5,-378 433.5,-384 433.5,-384 433.5,-387 430.5,-390 427.5,-390"/>
<text text-anchor="start" x="373.5" y="-378.8" font-family="Helvetica,sans-Serif" font-size="9.00">resolvers.ts</text>
</a>
</g>
</g>
<!-- src/api/sources.ts -->
<g id="node3" class="node">
<title>src/api/sources.ts</title>
<g id="a_node3"><a xlink:href="src/api/sources.ts" xlink:title="sources.ts">
<path fill="#ddfeff" stroke="black" d="M510,-390C510,-390 460,-390 460,-390 457,-390 454,-387 454,-384 454,-384 454,-378 454,-378 454,-375 457,-372 460,-372 460,-372 510,-372 510,-372 513,-372 516,-375 516,-378 516,-378 516,-384 516,-384 516,-387 513,-390 510,-390"/>
<text text-anchor="start" x="462" y="-378.8" font-family="Helvetica,sans-Serif" font-size="9.00">sources.ts</text>
</a>
</g>
</g>
<!-- src/api/resolvers.ts&#45;&gt;src/api/sources.ts -->
<g id="edge1" class="edge">
<title>src/api/resolvers.ts&#45;&gt;src/api/sources.ts</title>
<path fill="none" stroke="#000000" stroke-width="2" stroke-opacity="0.200000" d="M433.5,-381C438.25,-381 443.15,-381 447.95,-381"/>
<polygon fill="#000000" fill-opacity="0.200000" stroke="#000000" stroke-width="2" stroke-opacity="0.200000" points="447.95,-383.1 453.95,-381 447.95,-378.9 447.95,-383.1"/>
</g>
<!-- src/api/schema.ts -->
<g id="node4" class="node">
<title>src/api/schema.ts</title>
<g id="a_node4"><a xlink:href="src/api/schema.ts" xlink:title="no&#45;orphans">
<path fill="#ccffcc" stroke="orange" d="M425,-360C425,-360 374,-360 374,-360 371,-360 368,-357 368,-354 368,-354 368,-348 368,-348 368,-345 371,-342 374,-342 374,-342 425,-342 425,-342 428,-342 431,-345 431,-348 431,-348 431,-354 431,-354 431,-357 428,-360 425,-360"/>
<text text-anchor="start" x="376" y="-348.8" font-family="Helvetica,sans-Serif" font-size="9.00" fill="orange">schema.ts</text>
</a>
</g>
</g>
<!-- src/libraries/apollo.ts -->
<g id="node5" class="node">
<title>src/libraries/apollo.ts</title>
<g id="a_node5"><a xlink:href="src/libraries/apollo.ts" xlink:title="apollo.ts">
<path fill="#ddfeff" stroke="black" d="M210,-256C210,-256 168,-256 168,-256 165,-256 162,-253 162,-250 162,-250 162,-244 162,-244 162,-241 165,-238 168,-238 168,-238 210,-238 210,-238 213,-238 216,-241 216,-244 216,-244 216,-250 216,-250 216,-253 213,-256 210,-256"/>
<text text-anchor="start" x="170" y="-244.8" font-family="Helvetica,sans-Serif" font-size="9.00">apollo.ts</text>
</a>
</g>
</g>
<!-- src/libraries/express.ts -->
<g id="node6" class="node">
<title>src/libraries/express.ts</title>
<g id="a_node6"><a xlink:href="src/libraries/express.ts" xlink:title="express.ts">
<path fill="#ddfeff" stroke="black" d="M329.5,-286C329.5,-286 279.5,-286 279.5,-286 276.5,-286 273.5,-283 273.5,-280 273.5,-280 273.5,-274 273.5,-274 273.5,-271 276.5,-268 279.5,-268 279.5,-268 329.5,-268 329.5,-268 332.5,-268 335.5,-271 335.5,-274 335.5,-274 335.5,-280 335.5,-280 335.5,-283 332.5,-286 329.5,-286"/>
<text text-anchor="start" x="281.5" y="-274.8" font-family="Helvetica,sans-Serif" font-size="9.00">express.ts</text>
</a>
</g>
</g>
<!-- src/libraries/apollo.ts&#45;&gt;src/libraries/express.ts -->
<g id="edge2" class="edge">
<title>src/libraries/apollo.ts&#45;&gt;src/libraries/express.ts</title>
<path fill="none" stroke="#000000" stroke-width="2" stroke-opacity="0.200000" d="M216.04,-253.88C231.19,-257.89 250.53,-263 267.17,-267.4"/>
<polygon fill="#000000" fill-opacity="0.200000" stroke="#000000" stroke-width="2" stroke-opacity="0.200000" points="266.82,-269.48 273.16,-268.98 267.9,-265.42 266.82,-269.48"/>
</g>
<!-- src/libraries/graphql&#45;tools.ts -->
<g id="node7" class="node">
<title>src/libraries/graphql&#45;tools.ts</title>
<g id="a_node7"><a xlink:href="src/libraries/graphql-tools.ts" xlink:title="graphql&#45;tools.ts">
<path fill="#ddfeff" stroke="black" d="M342,-256C342,-256 267,-256 267,-256 264,-256 261,-253 261,-250 261,-250 261,-244 261,-244 261,-241 264,-238 267,-238 267,-238 342,-238 342,-238 345,-238 348,-241 348,-244 348,-244 348,-250 348,-250 348,-253 345,-256 342,-256"/>
<text text-anchor="start" x="269" y="-244.8" font-family="Helvetica,sans-Serif" font-size="9.00">graphql&#45;tools.ts</text>
</a>
</g>
</g>
<!-- src/libraries/apollo.ts&#45;&gt;src/libraries/graphql&#45;tools.ts -->
<g id="edge3" class="edge">
<title>src/libraries/apollo.ts&#45;&gt;src/libraries/graphql&#45;tools.ts</title>
<path fill="none" stroke="#000000" stroke-width="2" stroke-opacity="0.200000" d="M216.04,-247C227.5,-247 241.36,-247 254.63,-247"/>
<polygon fill="#000000" fill-opacity="0.200000" stroke="#000000" stroke-width="2" stroke-opacity="0.200000" points="254.68,-249.1 260.68,-247 254.68,-244.9 254.68,-249.1"/>
</g>
<!-- src/libraries/graphql&#45;tools.ts&#45;&gt;src/api/mocks.ts -->
<g id="edge4" class="edge">
<title>src/libraries/graphql&#45;tools.ts&#45;&gt;src/api/mocks.ts</title>
<path fill="none" stroke="#000000" stroke-width="2" stroke-opacity="0.200000" d="M341.93,-256.23C344.23,-257.85 346.29,-259.76 348,-262 366.09,-285.74 339.54,-372.15 357.5,-396 359.61,-398.8 362.29,-401.08 365.28,-402.93"/>
<polygon fill="#000000" fill-opacity="0.200000" stroke="#000000" stroke-width="2" stroke-opacity="0.200000" points="364.62,-404.95 370.91,-405.83 366.54,-401.22 364.62,-404.95"/>
</g>
<!-- src/libraries/graphql&#45;tools.ts&#45;&gt;src/api/resolvers.ts -->
<g id="edge5" class="edge">
<title>src/libraries/graphql&#45;tools.ts&#45;&gt;src/api/resolvers.ts</title>
<path fill="none" stroke="#000000" stroke-width="2" stroke-opacity="0.200000" d="M341.5,-256C343.95,-257.67 346.17,-259.65 348,-262 362.25,-280.32 343.35,-347.6 357.5,-366 358.3,-367.04 359.17,-368 360.11,-368.9"/>
<polygon fill="#000000" fill-opacity="0.200000" stroke="#000000" stroke-width="2" stroke-opacity="0.200000" points="359.25,-370.88 365.29,-372.86 361.8,-367.54 359.25,-370.88"/>
</g>
<!-- src/libraries/file&#45;system.ts -->
<g id="node9" class="node">
<title>src/libraries/file&#45;system.ts</title>
<g id="a_node9"><a xlink:href="src/libraries/file-system.ts" xlink:title="file&#45;system.ts">
<path fill="#ddfeff" stroke="black" d="M432,-256C432,-256 367,-256 367,-256 364,-256 361,-253 361,-250 361,-250 361,-244 361,-244 361,-241 364,-238 367,-238 367,-238 432,-238 432,-238 435,-238 438,-241 438,-244 438,-244 438,-250 438,-250 438,-253 435,-256 432,-256"/>
<text text-anchor="start" x="369" y="-244.8" font-family="Helvetica,sans-Serif" font-size="9.00">file&#45;system.ts</text>
</a>
</g>
</g>
<!-- src/libraries/graphql&#45;tools.ts&#45;&gt;src/libraries/file&#45;system.ts -->
<g id="edge6" class="edge">
<title>src/libraries/graphql&#45;tools.ts&#45;&gt;src/libraries/file&#45;system.ts</title>
<path fill="none" stroke="#000000" stroke-width="2" stroke-opacity="0.200000" d="M348.19,-247C350.29,-247 352.4,-247 354.51,-247"/>
<polygon fill="#000000" fill-opacity="0.200000" stroke="#000000" stroke-width="2" stroke-opacity="0.200000" points="354.78,-249.1 360.78,-247 354.78,-244.9 354.78,-249.1"/>
</g>
<!-- src/libraries/express&#45;middleware.ts -->
<g id="node8" class="node">
<title>src/libraries/express&#45;middleware.ts</title>
<g id="a_node8"><a xlink:href="src/libraries/express-middleware.ts" xlink:title="express&#45;middleware.ts">
<path fill="#ddfeff" stroke="black" d="M242,-300C242,-300 136,-300 136,-300 133,-300 130,-297 130,-294 130,-294 130,-288 130,-288 130,-285 133,-282 136,-282 136,-282 242,-282 242,-282 245,-282 248,-285 248,-288 248,-288 248,-294 248,-294 248,-297 245,-300 242,-300"/>
<text text-anchor="start" x="138" y="-288.8" font-family="Helvetica,sans-Serif" font-size="9.00">express&#45;middleware.ts</text>
</a>
</g>
</g>
<!-- src/libraries/start.ts -->
<g id="node10" class="node">
<title>src/libraries/start.ts</title>
<g id="a_node10"><a xlink:href="src/libraries/start.ts" xlink:title="start.ts">
<path fill="#ddfeff" stroke="black" d="M90,-278C90,-278 48,-278 48,-278 45,-278 42,-275 42,-272 42,-272 42,-266 42,-266 42,-263 45,-260 48,-260 48,-260 90,-260 90,-260 93,-260 96,-263 96,-266 96,-266 96,-272 96,-272 96,-275 93,-278 90,-278"/>
<text text-anchor="start" x="52.5" y="-266.8" font-family="Helvetica,sans-Serif" font-size="9.00">start.ts</text>
</a>
</g>
</g>
<!-- src/libraries/start.ts&#45;&gt;src/libraries/apollo.ts -->
<g id="edge7" class="edge">
<title>src/libraries/start.ts&#45;&gt;src/libraries/apollo.ts</title>
<path fill="none" stroke="#000000" stroke-width="2" stroke-opacity="0.200000" d="M96.19,-264.12C113.76,-260.84 137.02,-256.51 155.73,-253.02"/>
<polygon fill="#000000" fill-opacity="0.200000" stroke="#000000" stroke-width="2" stroke-opacity="0.200000" points="156.37,-255.03 161.89,-251.87 155.6,-250.9 156.37,-255.03"/>
</g>
<!-- src/libraries/start.ts&#45;&gt;src/libraries/express.ts -->
<g id="edge8" class="edge">
<title>src/libraries/start.ts&#45;&gt;src/libraries/express.ts</title>
<path fill="none" stroke="#000000" stroke-width="2" stroke-opacity="0.200000" d="M96.33,-269.9C138.11,-271.33 219.69,-274.13 267.05,-275.75"/>
<polygon fill="#000000" fill-opacity="0.200000" stroke="#000000" stroke-width="2" stroke-opacity="0.200000" points="267.15,-277.86 273.22,-275.96 267.29,-273.66 267.15,-277.86"/>
</g>
<!-- src/libraries/start.ts&#45;&gt;src/libraries/express&#45;middleware.ts -->
<g id="edge9" class="edge">
<title>src/libraries/start.ts&#45;&gt;src/libraries/express&#45;middleware.ts</title>
<path fill="none" stroke="#000000" stroke-width="2" stroke-opacity="0.200000" d="M96.19,-273.88C107.26,-275.95 120.59,-278.43 133.61,-280.86"/>
<polygon fill="#000000" fill-opacity="0.200000" stroke="#000000" stroke-width="2" stroke-opacity="0.200000" points="133.29,-282.94 139.57,-281.97 134.06,-278.81 133.29,-282.94"/>
</g>
<!-- src/services/packages/mutations.ts -->
<g id="node11" class="node">
<title>src/services/packages/mutations.ts</title>
<g id="a_node11"><a xlink:href="src/services/packages/mutations.ts" xlink:title="no&#45;orphans">
<path fill="#ccffcc" stroke="orange" d="M100,-170C100,-170 38,-170 38,-170 35,-170 32,-167 32,-164 32,-164 32,-158 32,-158 32,-155 35,-152 38,-152 38,-152 100,-152 100,-152 103,-152 106,-155 106,-158 106,-158 106,-164 106,-164 106,-167 103,-170 100,-170"/>
<text text-anchor="start" x="40" y="-158.8" font-family="Helvetica,sans-Serif" font-size="9.00" fill="orange">mutations.ts</text>
</a>
</g>
</g>
<!-- src/services/packages/queries.ts -->
<g id="node12" class="node">
<title>src/services/packages/queries.ts</title>
<g id="a_node12"><a xlink:href="src/services/packages/queries.ts" xlink:title="no&#45;orphans">
<path fill="#ccffcc" stroke="orange" d="M93.5,-140C93.5,-140 44.5,-140 44.5,-140 41.5,-140 38.5,-137 38.5,-134 38.5,-134 38.5,-128 38.5,-128 38.5,-125 41.5,-122 44.5,-122 44.5,-122 93.5,-122 93.5,-122 96.5,-122 99.5,-125 99.5,-128 99.5,-128 99.5,-134 99.5,-134 99.5,-137 96.5,-140 93.5,-140"/>
<text text-anchor="start" x="46.5" y="-128.8" font-family="Helvetica,sans-Serif" font-size="9.00" fill="orange">queries.ts</text>
</a>
</g>
</g>
<!-- src/services/projects/mutations.ts -->
<g id="node13" class="node">
<title>src/services/projects/mutations.ts</title>
<g id="a_node13"><a xlink:href="src/services/projects/mutations.ts" xlink:title="no&#45;orphans">
<path fill="#ccffcc" stroke="orange" d="M100,-80C100,-80 38,-80 38,-80 35,-80 32,-77 32,-74 32,-74 32,-68 32,-68 32,-65 35,-62 38,-62 38,-62 100,-62 100,-62 103,-62 106,-65 106,-68 106,-68 106,-74 106,-74 106,-77 103,-80 100,-80"/>
<text text-anchor="start" x="40" y="-68.8" font-family="Helvetica,sans-Serif" font-size="9.00" fill="orange">mutations.ts</text>
</a>
</g>
</g>
<!-- src/services/projects/queries.ts -->
<g id="node14" class="node">
<title>src/services/projects/queries.ts</title>
<g id="a_node14"><a xlink:href="src/services/projects/queries.ts" xlink:title="no&#45;orphans">
<path fill="#ccffcc" stroke="orange" d="M93.5,-50C93.5,-50 44.5,-50 44.5,-50 41.5,-50 38.5,-47 38.5,-44 38.5,-44 38.5,-38 38.5,-38 38.5,-35 41.5,-32 44.5,-32 44.5,-32 93.5,-32 93.5,-32 96.5,-32 99.5,-35 99.5,-38 99.5,-38 99.5,-44 99.5,-44 99.5,-47 96.5,-50 93.5,-50"/>
<text text-anchor="start" x="46.5" y="-38.8" font-family="Helvetica,sans-Serif" font-size="9.00" fill="orange">queries.ts</text>
</a>
</g>
</g>
</g>
</svg>
