<?xml version="1.0" encoding="UTF-8" standalone="no"?>
<!DOCTYPE svg PUBLIC "-//W3C//DTD SVG 1.1//EN"
 "http://www.w3.org/Graphics/SVG/1.1/DTD/svg11.dtd">
<!-- Generated by graphviz version 2.43.0 (0)
 -->
<!-- Title: dependency&#45;cruiser output Pages: 1 -->
<svg width="571pt" height="684pt"
 viewBox="0.00 0.00 571.00 684.00" xmlns="http://www.w3.org/2000/svg" xmlns:xlink="http://www.w3.org/1999/xlink">
<g id="graph0" class="graph" transform="scale(1 1) rotate(0) translate(4 680)">
<title>dependency&#45;cruiser output</title>
<polygon fill="white" stroke="transparent" points="-4,4 -4,-680 567,-680 567,4 -4,4"/>
<g id="clust1" class="cluster">
<title>cluster_src</title>
<path fill="#ffffff" stroke="black" stroke-width="2" d="M20,-8C20,-8 543,-8 543,-8 549,-8 555,-14 555,-20 555,-20 555,-656 555,-656 555,-662 549,-668 543,-668 543,-668 20,-668 20,-668 14,-668 8,-662 8,-656 8,-656 8,-20 8,-20 8,-14 14,-8 20,-8"/>
<text text-anchor="middle" x="281.5" y="-656.8" font-family="Helvetica,sans-Serif" font-weight="bold" font-size="9.00">src</text>
</g>
<g id="clust2" class="cluster">
<title>cluster_src/api</title>
<path fill="#ffffff" stroke="black" stroke-width="2" d="M392.5,-530C392.5,-530 535,-530 535,-530 541,-530 547,-536 547,-542 547,-542 547,-630 547,-630 547,-636 541,-642 535,-642 535,-642 392.5,-642 392.5,-642 386.5,-642 380.5,-636 380.5,-630 380.5,-630 380.5,-542 380.5,-542 380.5,-536 386.5,-530 392.5,-530"/>
<text text-anchor="middle" x="463.75" y="-630.8" font-family="Helvetica,sans-Serif" font-weight="bold" font-size="9.00">api</text>
</g>
<g id="clust3" class="cluster">
<title>cluster_src/libraries</title>
<path fill="#ffffff" stroke="black" stroke-width="2" d="M28,-350C28,-350 457,-350 457,-350 463,-350 469,-356 469,-362 469,-362 469,-510 469,-510 469,-516 463,-522 457,-522 457,-522 28,-522 28,-522 22,-522 16,-516 16,-510 16,-510 16,-362 16,-362 16,-356 22,-350 28,-350"/>
<text text-anchor="middle" x="242.5" y="-510.8" font-family="Helvetica,sans-Serif" font-weight="bold" font-size="9.00">libraries</text>
</g>
<g id="clust4" class="cluster">
<title>cluster_src/services</title>
<path fill="#ffffff" stroke="black" stroke-width="2" d="M41,-16C41,-16 123,-16 123,-16 129,-16 135,-22 135,-28 135,-28 135,-330 135,-330 135,-336 129,-342 123,-342 123,-342 41,-342 41,-342 35,-342 29,-336 29,-330 29,-330 29,-28 29,-28 29,-22 35,-16 41,-16"/>
<text text-anchor="middle" x="82" y="-330.8" font-family="Helvetica,sans-Serif" font-weight="bold" font-size="9.00">services</text>
</g>
<g id="clust5" class="cluster">
<title>cluster_src/services/packages</title>
<path fill="#ffffff" stroke="black" stroke-width="2" d="M49,-174C49,-174 115,-174 115,-174 121,-174 127,-180 127,-186 127,-186 127,-304 127,-304 127,-310 121,-316 115,-316 115,-316 49,-316 49,-316 43,-316 37,-310 37,-304 37,-304 37,-186 37,-186 37,-180 43,-174 49,-174"/>
<text text-anchor="middle" x="82" y="-304.8" font-family="Helvetica,sans-Serif" font-weight="bold" font-size="9.00">packages</text>
</g>
<g id="clust6" class="cluster">
<title>cluster_src/services/projects</title>
<path fill="#ffffff" stroke="black" stroke-width="2" d="M49,-24C49,-24 115,-24 115,-24 121,-24 127,-30 127,-36 127,-36 127,-154 127,-154 127,-160 121,-166 115,-166 115,-166 49,-166 49,-166 43,-166 37,-160 37,-154 37,-154 37,-36 37,-36 37,-30 43,-24 49,-24"/>
<text text-anchor="middle" x="82" y="-154.8" font-family="Helvetica,sans-Serif" font-weight="bold" font-size="9.00">projects</text>
</g>
<!-- src/api/mocks.ts -->
<g id="node1" class="node">
<title>src/api/mocks.ts</title>
<g id="a_node1"><a xlink:href="src/api/mocks.ts" xlink:title="mocks.ts">
<path fill="#ddfeff" stroke="black" d="M445,-616C445,-616 400,-616 400,-616 397,-616 394,-613 394,-610 394,-610 394,-604 394,-604 394,-601 397,-598 400,-598 400,-598 445,-598 445,-598 448,-598 451,-601 451,-604 451,-604 451,-610 451,-610 451,-613 448,-616 445,-616"/>
<text text-anchor="start" x="402" y="-604.8" font-family="Helvetica,sans-Serif" font-size="9.00">mocks.ts</text>
</a>
</g>
</g>
<!-- src/api/resolvers.ts -->
<g id="node2" class="node">
<title>src/api/resolvers.ts</title>
<g id="a_node2"><a xlink:href="src/api/resolvers.ts" xlink:title="resolvers.ts">
<path fill="#ddfeff" stroke="black" d="M450.5,-586C450.5,-586 394.5,-586 394.5,-586 391.5,-586 388.5,-583 388.5,-580 388.5,-580 388.5,-574 388.5,-574 388.5,-571 391.5,-568 394.5,-568 394.5,-568 450.5,-568 450.5,-568 453.5,-568 456.5,-571 456.5,-574 456.5,-574 456.5,-580 456.5,-580 456.5,-583 453.5,-586 450.5,-586"/>
<text text-anchor="start" x="396.5" y="-574.8" font-family="Helvetica,sans-Serif" font-size="9.00">resolvers.ts</text>
</a>
</g>
</g>
<!-- src/api/sources.ts -->
<g id="node3" class="node">
<title>src/api/sources.ts</title>
<g id="a_node3"><a xlink:href="src/api/sources.ts" xlink:title="sources.ts">
<path fill="#ddfeff" stroke="black" d="M533,-586C533,-586 483,-586 483,-586 480,-586 477,-583 477,-580 477,-580 477,-574 477,-574 477,-571 480,-568 483,-568 483,-568 533,-568 533,-568 536,-568 539,-571 539,-574 539,-574 539,-580 539,-580 539,-583 536,-586 533,-586"/>
<text text-anchor="start" x="485" y="-574.8" font-family="Helvetica,sans-Serif" font-size="9.00">sources.ts</text>
</a>
</g>
</g>
<!-- src/api/resolvers.ts&#45;&gt;src/api/sources.ts -->
<g id="edge1" class="edge">
<title>src/api/resolvers.ts&#45;&gt;src/api/sources.ts</title>
<path fill="none" stroke="#000000" stroke-width="2" stroke-opacity="0.200000" d="M456.5,-577C461.25,-577 466.15,-577 470.95,-577"/>
<polygon fill="#000000" fill-opacity="0.200000" stroke="#000000" stroke-width="2" stroke-opacity="0.200000" points="470.95,-579.1 476.95,-577 470.95,-574.9 470.95,-579.1"/>
</g>
<!-- src/api/schema.ts -->
<g id="node4" class="node">
<title>src/api/schema.ts</title>
<g id="a_node4"><a xlink:href="src/api/schema.ts" xlink:title="no&#45;orphans">
<path fill="#ccffcc" stroke="orange" d="M448,-556C448,-556 397,-556 397,-556 394,-556 391,-553 391,-550 391,-550 391,-544 391,-544 391,-541 394,-538 397,-538 397,-538 448,-538 448,-538 451,-538 454,-541 454,-544 454,-544 454,-550 454,-550 454,-553 451,-556 448,-556"/>
<text text-anchor="start" x="399" y="-544.8" font-family="Helvetica,sans-Serif" font-size="9.00" fill="orange">schema.ts</text>
</a>
</g>
</g>
<!-- src/libraries/apollo.js -->
<g id="node5" class="node">
<title>src/libraries/apollo.js</title>
<g id="a_node5"><a xlink:href="src/libraries/apollo.js" xlink:title="apollo.js">
<path fill="#ffffcc" stroke="black" d="M233,-406C233,-406 191,-406 191,-406 188,-406 185,-403 185,-400 185,-400 185,-394 185,-394 185,-391 188,-388 191,-388 191,-388 233,-388 233,-388 236,-388 239,-391 239,-394 239,-394 239,-400 239,-400 239,-403 236,-406 233,-406"/>
<text text-anchor="start" x="193.5" y="-394.8" font-family="Helvetica,sans-Serif" font-size="9.00">apollo.js</text>
</a>
</g>
</g>
<!-- src/libraries/express.ts -->
<g id="node6" class="node">
<title>src/libraries/express.ts</title>
<g id="a_node6"><a xlink:href="src/libraries/express.ts" xlink:title="express.ts">
<path fill="#ddfeff" stroke="black" d="M352.5,-436C352.5,-436 302.5,-436 302.5,-436 299.5,-436 296.5,-433 296.5,-430 296.5,-430 296.5,-424 296.5,-424 296.5,-421 299.5,-418 302.5,-418 302.5,-418 352.5,-418 352.5,-418 355.5,-418 358.5,-421 358.5,-424 358.5,-424 358.5,-430 358.5,-430 358.5,-433 355.5,-436 352.5,-436"/>
<text text-anchor="start" x="304.5" y="-424.8" font-family="Helvetica,sans-Serif" font-size="9.00">express.ts</text>
</a>
</g>
</g>
<!-- src/libraries/apollo.js&#45;&gt;src/libraries/express.ts -->
<g id="edge2" class="edge">
<title>src/libraries/apollo.js&#45;&gt;src/libraries/express.ts</title>
<path fill="none" stroke="#000000" stroke-width="2" stroke-opacity="0.200000" d="M239.04,-403.88C254.19,-407.89 273.53,-413 290.17,-417.4"/>
<polygon fill="#000000" fill-opacity="0.200000" stroke="#000000" stroke-width="2" stroke-opacity="0.200000" points="289.82,-419.48 296.16,-418.98 290.9,-415.42 289.82,-419.48"/>
</g>
<!-- src/libraries/graphql&#45;tools.ts -->
<g id="node7" class="node">
<title>src/libraries/graphql&#45;tools.ts</title>
<g id="a_node7"><a xlink:href="src/libraries/graphql-tools.ts" xlink:title="graphql&#45;tools.ts">
<path fill="#ddfeff" stroke="black" d="M365,-406C365,-406 290,-406 290,-406 287,-406 284,-403 284,-400 284,-400 284,-394 284,-394 284,-391 287,-388 290,-388 290,-388 365,-388 365,-388 368,-388 371,-391 371,-394 371,-394 371,-400 371,-400 371,-403 368,-406 365,-406"/>
<text text-anchor="start" x="292" y="-394.8" font-family="Helvetica,sans-Serif" font-size="9.00">graphql&#45;tools.ts</text>
</a>
</g>
</g>
<!-- src/libraries/apollo.js&#45;&gt;src/libraries/graphql&#45;tools.ts -->
<g id="edge3" class="edge">
<title>src/libraries/apollo.js&#45;&gt;src/libraries/graphql&#45;tools.ts</title>
<path fill="none" stroke="#000000" stroke-width="2" stroke-opacity="0.200000" d="M239.04,-397C250.5,-397 264.36,-397 277.63,-397"/>
<polygon fill="#000000" fill-opacity="0.200000" stroke="#000000" stroke-width="2" stroke-opacity="0.200000" points="277.68,-399.1 283.68,-397 277.68,-394.9 277.68,-399.1"/>
</g>
<!-- src/libraries/graphql&#45;tools.ts&#45;&gt;src/api/mocks.ts -->
<g id="edge9" class="edge">
<title>src/libraries/graphql&#45;tools.ts&#45;&gt;src/api/mocks.ts</title>
<path fill="none" stroke="#000000" stroke-width="2" stroke-opacity="0.200000" d="M364.98,-406.2C367.26,-407.83 369.31,-409.74 371,-412 394.99,-444.08 356.69,-559.79 380.5,-592 382.58,-594.82 385.25,-597.11 388.23,-598.97"/>
<polygon fill="#000000" fill-opacity="0.200000" stroke="#000000" stroke-width="2" stroke-opacity="0.200000" points="387.56,-600.99 393.85,-601.88 389.48,-597.26 387.56,-600.99"/>
</g>
<!-- src/libraries/graphql&#45;tools.ts&#45;&gt;src/api/resolvers.ts -->
<g id="edge10" class="edge">
<title>src/libraries/graphql&#45;tools.ts&#45;&gt;src/api/resolvers.ts</title>
<path fill="none" stroke="#000000" stroke-width="2" stroke-opacity="0.200000" d="M364.95,-406.22C367.24,-407.84 369.3,-409.75 371,-412 391.14,-438.64 360.51,-535.24 380.5,-562 381.28,-563.05 382.15,-564.02 383.08,-564.93"/>
<polygon fill="#000000" fill-opacity="0.200000" stroke="#000000" stroke-width="2" stroke-opacity="0.200000" points="382.18,-566.89 388.21,-568.92 384.76,-563.58 382.18,-566.89"/>
</g>
<!-- src/libraries/file&#45;system.ts -->
<g id="node13" class="node">
<title>src/libraries/file&#45;system.ts</title>
<g id="a_node13"><a xlink:href="src/libraries/file-system.ts" xlink:title="file&#45;system.ts">
<path fill="#ddfeff" stroke="black" d="M455,-451C455,-451 390,-451 390,-451 387,-451 384,-448 384,-445 384,-445 384,-439 384,-439 384,-436 387,-433 390,-433 390,-433 455,-433 455,-433 458,-433 461,-436 461,-439 461,-439 461,-445 461,-445 461,-448 458,-451 455,-451"/>
<text text-anchor="start" x="392" y="-439.8" font-family="Helvetica,sans-Serif" font-size="9.00">file&#45;system.ts</text>
</a>
</g>
</g>
<!-- src/libraries/graphql&#45;tools.ts&#45;&gt;src/libraries/file&#45;system.ts -->
<g id="edge11" class="edge">
<title>src/libraries/graphql&#45;tools.ts&#45;&gt;src/libraries/file&#45;system.ts</title>
<path fill="none" stroke="#000000" stroke-width="2" stroke-opacity="0.200000" d="M356.71,-406.07C361.54,-407.88 366.46,-409.88 371,-412 381.81,-417.06 393.29,-423.76 402.57,-429.55"/>
<polygon fill="#000000" fill-opacity="0.200000" stroke="#000000" stroke-width="2" stroke-opacity="0.200000" points="401.56,-431.4 407.76,-432.83 403.81,-427.85 401.56,-431.4"/>
</g>
<!-- src/libraries/apollo.ts -->
<g id="node8" class="node">
<title>src/libraries/apollo.ts</title>
<g id="a_node8"><a xlink:href="src/libraries/apollo.ts" xlink:title="apollo.ts">
<path fill="#ddfeff" stroke="black" d="M233,-376C233,-376 191,-376 191,-376 188,-376 185,-373 185,-370 185,-370 185,-364 185,-364 185,-361 188,-358 191,-358 191,-358 233,-358 233,-358 236,-358 239,-361 239,-364 239,-364 239,-370 239,-370 239,-373 236,-376 233,-376"/>
<text text-anchor="start" x="193" y="-364.8" font-family="Helvetica,sans-Serif" font-size="9.00">apollo.ts</text>
</a>
</g>
</g>
<!-- src/libraries/apollo.ts&#45;&gt;src/libraries/express.ts -->
<g id="edge4" class="edge">
<title>src/libraries/apollo.ts&#45;&gt;src/libraries/express.ts</title>
<path fill="none" stroke="#000000" stroke-width="2" stroke-opacity="0.200000" d="M239.01,-368.71C249.94,-370.61 262.15,-374.43 271,-382 282.04,-391.44 273.37,-402.09 284,-412 286.11,-413.96 288.49,-415.67 291.02,-417.16"/>
<polygon fill="#000000" fill-opacity="0.200000" stroke="#000000" stroke-width="2" stroke-opacity="0.200000" points="290.09,-419.04 296.38,-419.91 292,-415.31 290.09,-419.04"/>
</g>
<!-- src/libraries/apollo.ts&#45;&gt;src/libraries/graphql&#45;tools.ts -->
<g id="edge5" class="edge">
<title>src/libraries/apollo.ts&#45;&gt;src/libraries/graphql&#45;tools.ts</title>
<path fill="none" stroke="#000000" stroke-width="2" stroke-opacity="0.200000" d="M239,-373.66C249.01,-376.24 260.54,-379.23 271,-382 276.31,-383.41 281.91,-384.9 287.42,-386.38"/>
<polygon fill="#000000" fill-opacity="0.200000" stroke="#000000" stroke-width="2" stroke-opacity="0.200000" points="287.01,-388.45 293.35,-387.98 288.11,-384.39 287.01,-388.45"/>
</g>
<!-- src/libraries/express&#45;middleware.js -->
<g id="node9" class="node">
<title>src/libraries/express&#45;middleware.js</title>
<g id="a_node9"><a xlink:href="src/libraries/express-middleware.js" xlink:title="no&#45;orphans">
<path fill="#ccffcc" stroke="orange" d="M134,-496C134,-496 30,-496 30,-496 27,-496 24,-493 24,-490 24,-490 24,-484 24,-484 24,-481 27,-478 30,-478 30,-478 134,-478 134,-478 137,-478 140,-481 140,-484 140,-484 140,-490 140,-490 140,-493 137,-496 134,-496"/>
<text text-anchor="start" x="32" y="-484.8" font-family="Helvetica,sans-Serif" font-size="9.00" fill="orange">express&#45;middleware.js</text>
</a>
</g>
</g>
<!-- src/libraries/express&#45;middleware.ts -->
<g id="node10" class="node">
<title>src/libraries/express&#45;middleware.ts</title>
<g id="a_node10"><a xlink:href="src/libraries/express-middleware.ts" xlink:title="express&#45;middleware.ts">
<path fill="#ddfeff" stroke="black" d="M265,-450C265,-450 159,-450 159,-450 156,-450 153,-447 153,-444 153,-444 153,-438 153,-438 153,-435 156,-432 159,-432 159,-432 265,-432 265,-432 268,-432 271,-435 271,-438 271,-438 271,-444 271,-444 271,-447 268,-450 265,-450"/>
<text text-anchor="start" x="161" y="-438.8" font-family="Helvetica,sans-Serif" font-size="9.00">express&#45;middleware.ts</text>
</a>
</g>
</g>
<!-- src/libraries/express.js -->
<g id="node11" class="node">
<title>src/libraries/express.js</title>
<g id="a_node11"><a xlink:href="src/libraries/express.js" xlink:title="no&#45;orphans">
<path fill="#ccffcc" stroke="orange" d="M106.5,-466C106.5,-466 57.5,-466 57.5,-466 54.5,-466 51.5,-463 51.5,-460 51.5,-460 51.5,-454 51.5,-454 51.5,-451 54.5,-448 57.5,-448 57.5,-448 106.5,-448 106.5,-448 109.5,-448 112.5,-451 112.5,-454 112.5,-454 112.5,-460 112.5,-460 112.5,-463 109.5,-466 106.5,-466"/>
<text text-anchor="start" x="59.5" y="-454.8" font-family="Helvetica,sans-Serif" font-size="9.00" fill="orange">express.js</text>
</a>
</g>
</g>
<!-- src/libraries/file&#45;system.js -->
<g id="node12" class="node">
<title>src/libraries/file&#45;system.js</title>
<g id="a_node12"><a xlink:href="src/libraries/file-system.js" xlink:title="no&#45;orphans">
<path fill="#ccffcc" stroke="orange" d="M113.5,-436C113.5,-436 50.5,-436 50.5,-436 47.5,-436 44.5,-433 44.5,-430 44.5,-430 44.5,-424 44.5,-424 44.5,-421 47.5,-418 50.5,-418 50.5,-418 113.5,-418 113.5,-418 116.5,-418 119.5,-421 119.5,-424 119.5,-424 119.5,-430 119.5,-430 119.5,-433 116.5,-436 113.5,-436"/>
<text text-anchor="start" x="52.5" y="-424.8" font-family="Helvetica,sans-Serif" font-size="9.00" fill="orange">file&#45;system.js</text>
</a>
</g>
</g>
<!-- src/libraries/graphql&#45;tools.js -->
<g id="node14" class="node">
<title>src/libraries/graphql&#45;tools.js</title>
<g id="a_node14"><a xlink:href="src/libraries/graphql-tools.js" xlink:title="graphql&#45;tools.js">
<path fill="#ffffcc" stroke="black" d="M364.5,-496C364.5,-496 290.5,-496 290.5,-496 287.5,-496 284.5,-493 284.5,-490 284.5,-490 284.5,-484 284.5,-484 284.5,-481 287.5,-478 290.5,-478 290.5,-478 364.5,-478 364.5,-478 367.5,-478 370.5,-481 370.5,-484 370.5,-484 370.5,-490 370.5,-490 370.5,-493 367.5,-496 364.5,-496"/>
<text text-anchor="start" x="292.5" y="-484.8" font-family="Helvetica,sans-Serif" font-size="9.00">graphql&#45;tools.js</text>
</a>
</g>
</g>
<!-- src/libraries/graphql&#45;tools.js&#45;&gt;src/api/mocks.ts -->
<g id="edge6" class="edge">
<title>src/libraries/graphql&#45;tools.js&#45;&gt;src/api/mocks.ts</title>
<path fill="none" stroke="#000000" stroke-width="2" stroke-opacity="0.200000" d="M330.6,-496.28C335.66,-516.52 350.36,-564.98 380.5,-592 382.78,-594.04 385.36,-595.81 388.09,-597.35"/>
<polygon fill="#000000" fill-opacity="0.200000" stroke="#000000" stroke-width="2" stroke-opacity="0.200000" points="387.54,-599.42 393.85,-600.18 389.39,-595.65 387.54,-599.42"/>
</g>
<!-- src/libraries/graphql&#45;tools.js&#45;&gt;src/api/resolvers.ts -->
<g id="edge7" class="edge">
<title>src/libraries/graphql&#45;tools.js&#45;&gt;src/api/resolvers.ts</title>
<path fill="none" stroke="#000000" stroke-width="2" stroke-opacity="0.200000" d="M332.57,-496.21C339.93,-511.88 356.93,-543.79 380.5,-562 381.91,-563.09 383.4,-564.1 384.95,-565.04"/>
<polygon fill="#000000" fill-opacity="0.200000" stroke="#000000" stroke-width="2" stroke-opacity="0.200000" points="384.13,-566.99 390.41,-567.99 386.13,-563.29 384.13,-566.99"/>
</g>
<!-- src/libraries/graphql&#45;tools.js&#45;&gt;src/libraries/file&#45;system.ts -->
<g id="edge8" class="edge">
<title>src/libraries/graphql&#45;tools.js&#45;&gt;src/libraries/file&#45;system.ts</title>
<path fill="none" stroke="#000000" stroke-width="2" stroke-opacity="0.200000" d="M347.32,-477.89C361.69,-470.94 381.61,-461.3 397.18,-453.77"/>
<polygon fill="#000000" fill-opacity="0.200000" stroke="#000000" stroke-width="2" stroke-opacity="0.200000" points="398.22,-455.6 402.71,-451.09 396.39,-451.82 398.22,-455.6"/>
</g>
<!-- src/libraries/start.js -->
<g id="node15" class="node">
<title>src/libraries/start.js</title>
<g id="a_node15"><a xlink:href="src/libraries/start.js" xlink:title="start.js">
<path fill="#ffffcc" stroke="black" d="M103,-376C103,-376 61,-376 61,-376 58,-376 55,-373 55,-370 55,-370 55,-364 55,-364 55,-361 58,-358 61,-358 61,-358 103,-358 103,-358 106,-358 109,-361 109,-364 109,-364 109,-370 109,-370 109,-373 106,-376 103,-376"/>
<text text-anchor="start" x="66.5" y="-364.8" font-family="Helvetica,sans-Serif" font-size="9.00">start.js</text>
</a>
</g>
</g>
<!-- src/libraries/start.js&#45;&gt;src/libraries/express.ts -->
<g id="edge13" class="edge">
<title>src/libraries/start.js&#45;&gt;src/libraries/express.ts</title>
<path fill="none" stroke="#000000" stroke-width="2" stroke-opacity="0.200000" d="M109.14,-368.92C119.74,-370.87 131.46,-374.67 140,-382 151.02,-391.47 141.21,-403.51 153,-412 163.86,-419.82 242.69,-424 290.27,-425.83"/>
<polygon fill="#000000" fill-opacity="0.200000" stroke="#000000" stroke-width="2" stroke-opacity="0.200000" points="290.41,-427.94 296.48,-426.06 290.57,-423.74 290.41,-427.94"/>
</g>
<!-- src/libraries/start.js&#45;&gt;src/libraries/apollo.ts -->
<g id="edge12" class="edge">
<title>src/libraries/start.js&#45;&gt;src/libraries/apollo.ts</title>
<path fill="none" stroke="#000000" stroke-width="2" stroke-opacity="0.200000" d="M109.21,-367C129.32,-367 157.17,-367 178.66,-367"/>
<polygon fill="#000000" fill-opacity="0.200000" stroke="#000000" stroke-width="2" stroke-opacity="0.200000" points="178.82,-369.1 184.82,-367 178.82,-364.9 178.82,-369.1"/>
</g>
<!-- src/libraries/start.js&#45;&gt;src/libraries/express&#45;middleware.ts -->
<g id="edge14" class="edge">
<title>src/libraries/start.js&#45;&gt;src/libraries/express&#45;middleware.ts</title>
<path fill="none" stroke="#000000" stroke-width="2" stroke-opacity="0.200000" d="M109.22,-368.45C119.96,-370.31 131.77,-374.17 140,-382 153.85,-395.18 139.44,-409.52 153,-423 155.18,-425.16 157.61,-427.07 160.2,-428.74"/>
<polygon fill="#000000" fill-opacity="0.200000" stroke="#000000" stroke-width="2" stroke-opacity="0.200000" points="159.49,-430.75 165.75,-431.87 161.56,-427.09 159.49,-430.75"/>
</g>
<!-- src/libraries/start.ts -->
<g id="node16" class="node">
<title>src/libraries/start.ts</title>
<g id="a_node16"><a xlink:href="src/libraries/start.ts" xlink:title="start.ts">
<path fill="#ddfeff" stroke="black" d="M103,-406C103,-406 61,-406 61,-406 58,-406 55,-403 55,-400 55,-400 55,-394 55,-394 55,-391 58,-388 61,-388 61,-388 103,-388 103,-388 106,-388 109,-391 109,-394 109,-394 109,-400 109,-400 109,-403 106,-406 103,-406"/>
<text text-anchor="start" x="65.5" y="-394.8" font-family="Helvetica,sans-Serif" font-size="9.00">start.ts</text>
</a>
</g>
</g>
<!-- src/libraries/start.ts&#45;&gt;src/libraries/express.ts -->
<g id="edge16" class="edge">
<title>src/libraries/start.ts&#45;&gt;src/libraries/express.ts</title>
<path fill="none" stroke="#000000" stroke-width="2" stroke-opacity="0.200000" d="M109.01,-398.32C119.84,-400.15 131.78,-404.02 140,-412 154.63,-426.2 136.67,-443.79 153,-456 199.21,-490.53 271.69,-458.31 306.51,-439.05"/>
<polygon fill="#000000" fill-opacity="0.200000" stroke="#000000" stroke-width="2" stroke-opacity="0.200000" points="307.57,-440.86 311.77,-436.08 305.51,-437.21 307.57,-440.86"/>
</g>
<!-- src/libraries/start.ts&#45;&gt;src/libraries/apollo.ts -->
<g id="edge15" class="edge">
<title>src/libraries/start.ts&#45;&gt;src/libraries/apollo.ts</title>
<path fill="none" stroke="#000000" stroke-width="2" stroke-opacity="0.200000" d="M109.21,-390.86C129.4,-386.12 157.41,-379.56 178.94,-374.52"/>
<polygon fill="#000000" fill-opacity="0.200000" stroke="#000000" stroke-width="2" stroke-opacity="0.200000" points="179.46,-376.55 184.82,-373.14 178.5,-372.46 179.46,-376.55"/>
</g>
<!-- src/libraries/start.ts&#45;&gt;src/libraries/express&#45;middleware.ts -->
<g id="edge17" class="edge">
<title>src/libraries/start.ts&#45;&gt;src/libraries/express&#45;middleware.ts</title>
<path fill="none" stroke="#000000" stroke-width="2" stroke-opacity="0.200000" d="M109.15,-401.32C119.17,-403.63 130.47,-407.04 140,-412 146.71,-415.49 146.36,-419.36 153,-423 157.75,-425.61 162.93,-427.89 168.18,-429.88"/>
<polygon fill="#000000" fill-opacity="0.200000" stroke="#000000" stroke-width="2" stroke-opacity="0.200000" points="167.53,-431.88 173.89,-431.92 168.95,-427.92 167.53,-431.88"/>
</g>
<!-- src/services/packages/mutations.js -->
<g id="node17" class="node">
<title>src/services/packages/mutations.js</title>
<g id="a_node17"><a xlink:href="src/services/packages/mutations.js" xlink:title="no&#45;orphans">
<path fill="#ccffcc" stroke="orange" d="M112,-290C112,-290 52,-290 52,-290 49,-290 46,-287 46,-284 46,-284 46,-278 46,-278 46,-275 49,-272 52,-272 52,-272 112,-272 112,-272 115,-272 118,-275 118,-278 118,-278 118,-284 118,-284 118,-287 115,-290 112,-290"/>
<text text-anchor="start" x="54" y="-278.8" font-family="Helvetica,sans-Serif" font-size="9.00" fill="orange">mutations.js</text>
</a>
</g>
</g>
<!-- src/services/packages/mutations.ts -->
<g id="node18" class="node">
<title>src/services/packages/mutations.ts</title>
<g id="a_node18"><a xlink:href="src/services/packages/mutations.ts" xlink:title="no&#45;orphans">
<path fill="#ccffcc" stroke="orange" d="M113,-260C113,-260 51,-260 51,-260 48,-260 45,-257 45,-254 45,-254 45,-248 45,-248 45,-245 48,-242 51,-242 51,-242 113,-242 113,-242 116,-242 119,-245 119,-248 119,-248 119,-254 119,-254 119,-257 116,-260 113,-260"/>
<text text-anchor="start" x="53" y="-248.8" font-family="Helvetica,sans-Serif" font-size="9.00" fill="orange">mutations.ts</text>
</a>
</g>
</g>
<!-- src/services/packages/queries.js -->
<g id="node19" class="node">
<title>src/services/packages/queries.js</title>
<g id="a_node19"><a xlink:href="src/services/packages/queries.js" xlink:title="no&#45;orphans">
<path fill="#ccffcc" stroke="orange" d="M105.5,-230C105.5,-230 58.5,-230 58.5,-230 55.5,-230 52.5,-227 52.5,-224 52.5,-224 52.5,-218 52.5,-218 52.5,-215 55.5,-212 58.5,-212 58.5,-212 105.5,-212 105.5,-212 108.5,-212 111.5,-215 111.5,-218 111.5,-218 111.5,-224 111.5,-224 111.5,-227 108.5,-230 105.5,-230"/>
<text text-anchor="start" x="60.5" y="-218.8" font-family="Helvetica,sans-Serif" font-size="9.00" fill="orange">queries.js</text>
</a>
</g>
</g>
<!-- src/services/packages/queries.ts -->
<g id="node20" class="node">
<title>src/services/packages/queries.ts</title>
<g id="a_node20"><a xlink:href="src/services/packages/queries.ts" xlink:title="no&#45;orphans">
<path fill="#ccffcc" stroke="orange" d="M106.5,-200C106.5,-200 57.5,-200 57.5,-200 54.5,-200 51.5,-197 51.5,-194 51.5,-194 51.5,-188 51.5,-188 51.5,-185 54.5,-182 57.5,-182 57.5,-182 106.5,-182 106.5,-182 109.5,-182 112.5,-185 112.5,-188 112.5,-188 112.5,-194 112.5,-194 112.5,-197 109.5,-200 106.5,-200"/>
<text text-anchor="start" x="59.5" y="-188.8" font-family="Helvetica,sans-Serif" font-size="9.00" fill="orange">queries.ts</text>
</a>
</g>
</g>
<!-- src/services/projects/mutations.js -->
<g id="node21" class="node">
<title>src/services/projects/mutations.js</title>
<g id="a_node21"><a xlink:href="src/services/projects/mutations.js" xlink:title="no&#45;orphans">
<path fill="#ccffcc" stroke="orange" d="M112,-140C112,-140 52,-140 52,-140 49,-140 46,-137 46,-134 46,-134 46,-128 46,-128 46,-125 49,-122 52,-122 52,-122 112,-122 112,-122 115,-122 118,-125 118,-128 118,-128 118,-134 118,-134 118,-137 115,-140 112,-140"/>
<text text-anchor="start" x="54" y="-128.8" font-family="Helvetica,sans-Serif" font-size="9.00" fill="orange">mutations.js</text>
</a>
</g>
</g>
<!-- src/services/projects/mutations.ts -->
<g id="node22" class="node">
<title>src/services/projects/mutations.ts</title>
<g id="a_node22"><a xlink:href="src/services/projects/mutations.ts" xlink:title="no&#45;orphans">
<path fill="#ccffcc" stroke="orange" d="M113,-110C113,-110 51,-110 51,-110 48,-110 45,-107 45,-104 45,-104 45,-98 45,-98 45,-95 48,-92 51,-92 51,-92 113,-92 113,-92 116,-92 119,-95 119,-98 119,-98 119,-104 119,-104 119,-107 116,-110 113,-110"/>
<text text-anchor="start" x="53" y="-98.8" font-family="Helvetica,sans-Serif" font-size="9.00" fill="orange">mutations.ts</text>
</a>
</g>
</g>
<!-- src/services/projects/queries.js -->
<g id="node23" class="node">
<title>src/services/projects/queries.js</title>
<g id="a_node23"><a xlink:href="src/services/projects/queries.js" xlink:title="no&#45;orphans">
<path fill="#ccffcc" stroke="orange" d="M105.5,-80C105.5,-80 58.5,-80 58.5,-80 55.5,-80 52.5,-77 52.5,-74 52.5,-74 52.5,-68 52.5,-68 52.5,-65 55.5,-62 58.5,-62 58.5,-62 105.5,-62 105.5,-62 108.5,-62 111.5,-65 111.5,-68 111.5,-68 111.5,-74 111.5,-74 111.5,-77 108.5,-80 105.5,-80"/>
<text text-anchor="start" x="60.5" y="-68.8" font-family="Helvetica,sans-Serif" font-size="9.00" fill="orange">queries.js</text>
</a>
</g>
</g>
<!-- src/services/projects/queries.ts -->
<g id="node24" class="node">
<title>src/services/projects/queries.ts</title>
<g id="a_node24"><a xlink:href="src/services/projects/queries.ts" xlink:title="no&#45;orphans">
<path fill="#ccffcc" stroke="orange" d="M106.5,-50C106.5,-50 57.5,-50 57.5,-50 54.5,-50 51.5,-47 51.5,-44 51.5,-44 51.5,-38 51.5,-38 51.5,-35 54.5,-32 57.5,-32 57.5,-32 106.5,-32 106.5,-32 109.5,-32 112.5,-35 112.5,-38 112.5,-38 112.5,-44 112.5,-44 112.5,-47 109.5,-50 106.5,-50"/>
<text text-anchor="start" x="59.5" y="-38.8" font-family="Helvetica,sans-Serif" font-size="9.00" fill="orange">queries.ts</text>
</a>
</g>
</g>
</g>
</svg>
