<?xml version="1.0" encoding="UTF-8" standalone="no"?>
<!DOCTYPE svg PUBLIC "-//W3C//DTD SVG 1.1//EN"
 "http://www.w3.org/Graphics/SVG/1.1/DTD/svg11.dtd">
<!-- Generated by graphviz version 2.43.0 (0)
 -->
<!-- Title: dependency&#45;cruiser output Pages: 1 -->
<svg width="520pt" height="386pt"
 viewBox="0.00 0.00 520.00 386.00" xmlns="http://www.w3.org/2000/svg" xmlns:xlink="http://www.w3.org/1999/xlink">
<g id="graph0" class="graph" transform="scale(1 1) rotate(0) translate(4 382)">
<title>dependency&#45;cruiser output</title>
<polygon fill="white" stroke="transparent" points="-4,4 -4,-382 516,-382 516,4 -4,4"/>
<g id="clust1" class="cluster">
<title>cluster_src</title>
<path fill="#ffffff" stroke="black" stroke-width="2" d="M20,-8C20,-8 492,-8 492,-8 498,-8 504,-14 504,-20 504,-20 504,-358 504,-358 504,-364 498,-370 492,-370 492,-370 20,-370 20,-370 14,-370 8,-364 8,-358 8,-358 8,-20 8,-20 8,-14 14,-8 20,-8"/>
<text text-anchor="middle" x="256" y="-358.8" font-family="Helvetica,sans-Serif" font-weight="bold" font-size="9.00">src</text>
</g>
<g id="clust2" class="cluster">
<title>cluster_src/api</title>
<path fill="#ffffff" stroke="black" stroke-width="2" d="M341.5,-232C341.5,-232 484,-232 484,-232 490,-232 496,-238 496,-244 496,-244 496,-332 496,-332 496,-338 490,-344 484,-344 484,-344 341.5,-344 341.5,-344 335.5,-344 329.5,-338 329.5,-332 329.5,-332 329.5,-244 329.5,-244 329.5,-238 335.5,-232 341.5,-232"/>
<text text-anchor="middle" x="412.75" y="-332.8" font-family="Helvetica,sans-Serif" font-weight="bold" font-size="9.00">api</text>
</g>
<g id="clust3" class="cluster">
<title>cluster_src/library</title>
<path fill="#ffffff" stroke="black" stroke-width="2" d="M106,-22C106,-22 406,-22 406,-22 412,-22 418,-28 418,-34 418,-34 418,-212 418,-212 418,-218 412,-224 406,-224 406,-224 106,-224 106,-224 100,-224 94,-218 94,-212 94,-212 94,-34 94,-34 94,-28 100,-22 106,-22"/>
<text text-anchor="middle" x="256" y="-212.8" font-family="Helvetica,sans-Serif" font-weight="bold" font-size="9.00">library</text>
</g>
<g id="clust4" class="cluster">
<title>cluster_src/server</title>
<path fill="#ffffff" stroke="black" stroke-width="2" d="M28,-82C28,-82 74,-82 74,-82 80,-82 86,-88 86,-94 86,-94 86,-122 86,-122 86,-128 80,-134 74,-134 74,-134 28,-134 28,-134 22,-134 16,-128 16,-122 16,-122 16,-94 16,-94 16,-88 22,-82 28,-82"/>
<text text-anchor="middle" x="51" y="-122.8" font-family="Helvetica,sans-Serif" font-weight="bold" font-size="9.00">server</text>
</g>
<!-- src/api/mocks.ts -->
<g id="node1" class="node">
<title>src/api/mocks.ts</title>
<g id="a_node1"><a xlink:href="src/api/mocks.ts" xlink:title="mocks.ts">
<path fill="#ddfeff" stroke="black" d="M394,-318C394,-318 349,-318 349,-318 346,-318 343,-315 343,-312 343,-312 343,-306 343,-306 343,-303 346,-300 349,-300 349,-300 394,-300 394,-300 397,-300 400,-303 400,-306 400,-306 400,-312 400,-312 400,-315 397,-318 394,-318"/>
<text text-anchor="start" x="351" y="-306.8" font-family="Helvetica,sans-Serif" font-size="9.00">mocks.ts</text>
</a>
</g>
</g>
<!-- src/api/resolvers.ts -->
<g id="node2" class="node">
<title>src/api/resolvers.ts</title>
<g id="a_node2"><a xlink:href="src/api/resolvers.ts" xlink:title="resolvers.ts">
<path fill="#ddfeff" stroke="black" d="M399.5,-288C399.5,-288 343.5,-288 343.5,-288 340.5,-288 337.5,-285 337.5,-282 337.5,-282 337.5,-276 337.5,-276 337.5,-273 340.5,-270 343.5,-270 343.5,-270 399.5,-270 399.5,-270 402.5,-270 405.5,-273 405.5,-276 405.5,-276 405.5,-282 405.5,-282 405.5,-285 402.5,-288 399.5,-288"/>
<text text-anchor="start" x="345.5" y="-276.8" font-family="Helvetica,sans-Serif" font-size="9.00">resolvers.ts</text>
</a>
</g>
</g>
<!-- src/api/sources.ts -->
<g id="node3" class="node">
<title>src/api/sources.ts</title>
<g id="a_node3"><a xlink:href="src/api/sources.ts" xlink:title="sources.ts">
<path fill="#ddfeff" stroke="black" d="M482,-288C482,-288 432,-288 432,-288 429,-288 426,-285 426,-282 426,-282 426,-276 426,-276 426,-273 429,-270 432,-270 432,-270 482,-270 482,-270 485,-270 488,-273 488,-276 488,-276 488,-282 488,-282 488,-285 485,-288 482,-288"/>
<text text-anchor="start" x="434" y="-276.8" font-family="Helvetica,sans-Serif" font-size="9.00">sources.ts</text>
</a>
</g>
</g>
<!-- src/api/resolvers.ts&#45;&gt;src/api/sources.ts -->
<g id="edge1" class="edge">
<title>src/api/resolvers.ts&#45;&gt;src/api/sources.ts</title>
<path fill="none" stroke="#000000" stroke-width="2" stroke-opacity="0.200000" d="M405.5,-279C410.25,-279 415.15,-279 419.95,-279"/>
<polygon fill="#000000" fill-opacity="0.200000" stroke="#000000" stroke-width="2" stroke-opacity="0.200000" points="419.95,-281.1 425.95,-279 419.95,-276.9 419.95,-281.1"/>
</g>
<!-- src/api/schema.ts -->
<g id="node4" class="node">
<title>src/api/schema.ts</title>
<g id="a_node4"><a xlink:href="src/api/schema.ts" xlink:title="no&#45;orphans">
<path fill="#ccffcc" stroke="orange" d="M397,-258C397,-258 346,-258 346,-258 343,-258 340,-255 340,-252 340,-252 340,-246 340,-246 340,-243 343,-240 346,-240 346,-240 397,-240 397,-240 400,-240 403,-243 403,-246 403,-246 403,-252 403,-252 403,-255 400,-258 397,-258"/>
<text text-anchor="start" x="348" y="-246.8" font-family="Helvetica,sans-Serif" font-size="9.00" fill="orange">schema.ts</text>
</a>
</g>
</g>
<!-- src/library/apollo.js -->
<g id="node5" class="node">
<title>src/library/apollo.js</title>
<g id="a_node5"><a xlink:href="src/library/apollo.js" xlink:title="apollo.js">
<path fill="#ffffcc" stroke="black" d="M182,-168C182,-168 140,-168 140,-168 137,-168 134,-165 134,-162 134,-162 134,-156 134,-156 134,-153 137,-150 140,-150 140,-150 182,-150 182,-150 185,-150 188,-153 188,-156 188,-156 188,-162 188,-162 188,-165 185,-168 182,-168"/>
<text text-anchor="start" x="142.5" y="-156.8" font-family="Helvetica,sans-Serif" font-size="9.00">apollo.js</text>
</a>
</g>
</g>
<!-- src/library/express.ts -->
<g id="node6" class="node">
<title>src/library/express.ts</title>
<g id="a_node6"><a xlink:href="src/library/express.ts" xlink:title="express.ts">
<path fill="#ddfeff" stroke="black" d="M301.5,-93C301.5,-93 251.5,-93 251.5,-93 248.5,-93 245.5,-90 245.5,-87 245.5,-87 245.5,-81 245.5,-81 245.5,-78 248.5,-75 251.5,-75 251.5,-75 301.5,-75 301.5,-75 304.5,-75 307.5,-78 307.5,-81 307.5,-81 307.5,-87 307.5,-87 307.5,-90 304.5,-93 301.5,-93"/>
<text text-anchor="start" x="253.5" y="-81.8" font-family="Helvetica,sans-Serif" font-size="9.00">express.ts</text>
</a>
</g>
</g>
<!-- src/library/apollo.js&#45;&gt;src/library/express.ts -->
<g id="edge2" class="edge">
<title>src/library/apollo.js&#45;&gt;src/library/express.ts</title>
<path fill="none" stroke="#000000" stroke-width="2" stroke-opacity="0.200000" d="M188.07,-155.53C198.53,-153.33 210.36,-149.76 220,-144 239.35,-132.43 256.07,-112.11 265.96,-98.35"/>
<polygon fill="#000000" fill-opacity="0.200000" stroke="#000000" stroke-width="2" stroke-opacity="0.200000" points="267.8,-99.38 269.53,-93.26 264.36,-96.97 267.8,-99.38"/>
</g>
<!-- src/library/graphql&#45;tools.ts -->
<g id="node7" class="node">
<title>src/library/graphql&#45;tools.ts</title>
<g id="a_node7"><a xlink:href="src/library/graphql-tools.ts" xlink:title="graphql&#45;tools.ts">
<path fill="#ddfeff" stroke="black" d="M314,-198C314,-198 239,-198 239,-198 236,-198 233,-195 233,-192 233,-192 233,-186 233,-186 233,-183 236,-180 239,-180 239,-180 314,-180 314,-180 317,-180 320,-183 320,-186 320,-186 320,-192 320,-192 320,-195 317,-198 314,-198"/>
<text text-anchor="start" x="241" y="-186.8" font-family="Helvetica,sans-Serif" font-size="9.00">graphql&#45;tools.ts</text>
</a>
</g>
</g>
<!-- src/library/apollo.js&#45;&gt;src/library/graphql&#45;tools.ts -->
<g id="edge3" class="edge">
<title>src/library/apollo.js&#45;&gt;src/library/graphql&#45;tools.ts</title>
<path fill="none" stroke="#000000" stroke-width="2" stroke-opacity="0.200000" d="M188,-165.66C198.01,-168.24 209.54,-171.23 220,-174 225.31,-175.41 230.91,-176.9 236.42,-178.38"/>
<polygon fill="#000000" fill-opacity="0.200000" stroke="#000000" stroke-width="2" stroke-opacity="0.200000" points="236.01,-180.45 242.35,-179.98 237.11,-176.39 236.01,-180.45"/>
</g>
<!-- src/library/graphql&#45;tools.ts&#45;&gt;src/api/mocks.ts -->
<g id="edge8" class="edge">
<title>src/library/graphql&#45;tools.ts&#45;&gt;src/api/mocks.ts</title>
<path fill="none" stroke="#000000" stroke-width="2" stroke-opacity="0.200000" d="M279.6,-198.28C284.66,-218.52 299.36,-266.98 329.5,-294 331.78,-296.04 334.36,-297.81 337.09,-299.35"/>
<polygon fill="#000000" fill-opacity="0.200000" stroke="#000000" stroke-width="2" stroke-opacity="0.200000" points="336.54,-301.42 342.85,-302.18 338.39,-297.65 336.54,-301.42"/>
</g>
<!-- src/library/graphql&#45;tools.ts&#45;&gt;src/api/resolvers.ts -->
<g id="edge9" class="edge">
<title>src/library/graphql&#45;tools.ts&#45;&gt;src/api/resolvers.ts</title>
<path fill="none" stroke="#000000" stroke-width="2" stroke-opacity="0.200000" d="M281.57,-198.21C288.93,-213.88 305.93,-245.79 329.5,-264 330.91,-265.09 332.4,-266.1 333.95,-267.04"/>
<polygon fill="#000000" fill-opacity="0.200000" stroke="#000000" stroke-width="2" stroke-opacity="0.200000" points="333.13,-268.99 339.41,-269.99 335.13,-265.29 333.13,-268.99"/>
</g>
<!-- src/library/file&#45;system.ts -->
<g id="node13" class="node">
<title>src/library/file&#45;system.ts</title>
<g id="a_node13"><a xlink:href="src/library/file-system.ts" xlink:title="file&#45;system.ts">
<path fill="#ddfeff" stroke="black" d="M404,-183C404,-183 339,-183 339,-183 336,-183 333,-180 333,-177 333,-177 333,-171 333,-171 333,-168 336,-165 339,-165 339,-165 404,-165 404,-165 407,-165 410,-168 410,-171 410,-171 410,-177 410,-177 410,-180 407,-183 404,-183"/>
<text text-anchor="start" x="341" y="-171.8" font-family="Helvetica,sans-Serif" font-size="9.00">file&#45;system.ts</text>
</a>
</g>
</g>
<!-- src/library/graphql&#45;tools.ts&#45;&gt;src/library/file&#45;system.ts -->
<g id="edge10" class="edge">
<title>src/library/graphql&#45;tools.ts&#45;&gt;src/library/file&#45;system.ts</title>
<path fill="none" stroke="#000000" stroke-width="2" stroke-opacity="0.200000" d="M320.19,-182.11C322.29,-181.78 324.4,-181.44 326.51,-181.1"/>
<polygon fill="#000000" fill-opacity="0.200000" stroke="#000000" stroke-width="2" stroke-opacity="0.200000" points="327.19,-183.11 332.78,-180.08 326.52,-178.97 327.19,-183.11"/>
</g>
<!-- src/library/apollo.ts -->
<g id="node8" class="node">
<title>src/library/apollo.ts</title>
<g id="a_node8"><a xlink:href="src/library/apollo.ts" xlink:title="apollo.ts">
<path fill="#ddfeff" stroke="black" d="M182,-198C182,-198 140,-198 140,-198 137,-198 134,-195 134,-192 134,-192 134,-186 134,-186 134,-183 137,-180 140,-180 140,-180 182,-180 182,-180 185,-180 188,-183 188,-186 188,-186 188,-192 188,-192 188,-195 185,-198 182,-198"/>
<text text-anchor="start" x="142" y="-186.8" font-family="Helvetica,sans-Serif" font-size="9.00">apollo.ts</text>
</a>
</g>
</g>
<!-- src/library/apollo.ts&#45;&gt;src/library/graphql&#45;tools.ts -->
<g id="edge4" class="edge">
<title>src/library/apollo.ts&#45;&gt;src/library/graphql&#45;tools.ts</title>
<path fill="none" stroke="#000000" stroke-width="2" stroke-opacity="0.200000" d="M188.04,-189C199.5,-189 213.36,-189 226.63,-189"/>
<polygon fill="#000000" fill-opacity="0.200000" stroke="#000000" stroke-width="2" stroke-opacity="0.200000" points="226.68,-191.1 232.68,-189 226.68,-186.9 226.68,-191.1"/>
</g>
<!-- src/library/express&#45;middleware.js -->
<g id="node9" class="node">
<title>src/library/express&#45;middleware.js</title>
<g id="a_node9"><a xlink:href="src/library/express-middleware.js" xlink:title="no&#45;orphans">
<path fill="#ccffcc" stroke="orange" d="M213,-138C213,-138 109,-138 109,-138 106,-138 103,-135 103,-132 103,-132 103,-126 103,-126 103,-123 106,-120 109,-120 109,-120 213,-120 213,-120 216,-120 219,-123 219,-126 219,-126 219,-132 219,-132 219,-135 216,-138 213,-138"/>
<text text-anchor="start" x="111" y="-126.8" font-family="Helvetica,sans-Serif" font-size="9.00" fill="orange">express&#45;middleware.js</text>
</a>
</g>
</g>
<!-- src/library/express&#45;middleware.ts -->
<g id="node10" class="node">
<title>src/library/express&#45;middleware.ts</title>
<g id="a_node10"><a xlink:href="src/library/express-middleware.ts" xlink:title="express&#45;middleware.ts">
<path fill="#ddfeff" stroke="black" d="M214,-108C214,-108 108,-108 108,-108 105,-108 102,-105 102,-102 102,-102 102,-96 102,-96 102,-93 105,-90 108,-90 108,-90 214,-90 214,-90 217,-90 220,-93 220,-96 220,-96 220,-102 220,-102 220,-105 217,-108 214,-108"/>
<text text-anchor="start" x="110" y="-96.8" font-family="Helvetica,sans-Serif" font-size="9.00">express&#45;middleware.ts</text>
</a>
</g>
</g>
<!-- src/library/express.js -->
<g id="node11" class="node">
<title>src/library/express.js</title>
<g id="a_node11"><a xlink:href="src/library/express.js" xlink:title="no&#45;orphans">
<path fill="#ccffcc" stroke="orange" d="M185.5,-78C185.5,-78 136.5,-78 136.5,-78 133.5,-78 130.5,-75 130.5,-72 130.5,-72 130.5,-66 130.5,-66 130.5,-63 133.5,-60 136.5,-60 136.5,-60 185.5,-60 185.5,-60 188.5,-60 191.5,-63 191.5,-66 191.5,-66 191.5,-72 191.5,-72 191.5,-75 188.5,-78 185.5,-78"/>
<text text-anchor="start" x="138.5" y="-66.8" font-family="Helvetica,sans-Serif" font-size="9.00" fill="orange">express.js</text>
</a>
</g>
</g>
<!-- src/library/file&#45;system.js -->
<g id="node12" class="node">
<title>src/library/file&#45;system.js</title>
<g id="a_node12"><a xlink:href="src/library/file-system.js" xlink:title="no&#45;orphans">
<path fill="#ccffcc" stroke="orange" d="M192.5,-48C192.5,-48 129.5,-48 129.5,-48 126.5,-48 123.5,-45 123.5,-42 123.5,-42 123.5,-36 123.5,-36 123.5,-33 126.5,-30 129.5,-30 129.5,-30 192.5,-30 192.5,-30 195.5,-30 198.5,-33 198.5,-36 198.5,-36 198.5,-42 198.5,-42 198.5,-45 195.5,-48 192.5,-48"/>
<text text-anchor="start" x="131.5" y="-36.8" font-family="Helvetica,sans-Serif" font-size="9.00" fill="orange">file&#45;system.js</text>
</a>
</g>
</g>
<!-- src/library/graphql&#45;tools.js -->
<g id="node14" class="node">
<title>src/library/graphql&#45;tools.js</title>
<g id="a_node14"><a xlink:href="src/library/graphql-tools.js" xlink:title="graphql&#45;tools.js">
<path fill="#ffffcc" stroke="black" d="M313.5,-168C313.5,-168 239.5,-168 239.5,-168 236.5,-168 233.5,-165 233.5,-162 233.5,-162 233.5,-156 233.5,-156 233.5,-153 236.5,-150 239.5,-150 239.5,-150 313.5,-150 313.5,-150 316.5,-150 319.5,-153 319.5,-156 319.5,-156 319.5,-162 319.5,-162 319.5,-165 316.5,-168 313.5,-168"/>
<text text-anchor="start" x="241.5" y="-156.8" font-family="Helvetica,sans-Serif" font-size="9.00">graphql&#45;tools.js</text>
</a>
</g>
</g>
<!-- src/library/graphql&#45;tools.js&#45;&gt;src/api/mocks.ts -->
<g id="edge5" class="edge">
<title>src/library/graphql&#45;tools.js&#45;&gt;src/api/mocks.ts</title>
<path fill="none" stroke="#000000" stroke-width="2" stroke-opacity="0.200000" d="M313.91,-168.25C316.21,-169.86 318.28,-171.77 320,-174 336.3,-195.21 313.32,-272.7 329.5,-294 331.62,-296.79 334.31,-299.06 337.3,-300.91"/>
<polygon fill="#000000" fill-opacity="0.200000" stroke="#000000" stroke-width="2" stroke-opacity="0.200000" points="336.64,-302.94 342.94,-303.81 338.56,-299.2 336.64,-302.94"/>
</g>
<!-- src/library/graphql&#45;tools.js&#45;&gt;src/api/resolvers.ts -->
<g id="edge6" class="edge">
<title>src/library/graphql&#45;tools.js&#45;&gt;src/api/resolvers.ts</title>
<path fill="none" stroke="#000000" stroke-width="2" stroke-opacity="0.200000" d="M313.46,-168.03C315.93,-169.7 318.16,-171.67 320,-174 344.92,-205.57 304.76,-232.29 329.5,-264 330.3,-265.03 331.19,-265.99 332.13,-266.88"/>
<polygon fill="#000000" fill-opacity="0.200000" stroke="#000000" stroke-width="2" stroke-opacity="0.200000" points="331.28,-268.87 337.33,-270.83 333.82,-265.53 331.28,-268.87"/>
</g>
<!-- src/library/graphql&#45;tools.js&#45;&gt;src/library/file&#45;system.ts -->
<g id="edge7" class="edge">
<title>src/library/graphql&#45;tools.js&#45;&gt;src/library/file&#45;system.ts</title>
<path fill="none" stroke="#000000" stroke-width="2" stroke-opacity="0.200000" d="M319.65,-165.8C322,-166.18 324.36,-166.56 326.71,-166.94"/>
<polygon fill="#000000" fill-opacity="0.200000" stroke="#000000" stroke-width="2" stroke-opacity="0.200000" points="326.65,-169.05 332.91,-167.94 327.32,-164.91 326.65,-169.05"/>
</g>
<!-- src/server/start.ts -->
<g id="node15" class="node">
<title>src/server/start.ts</title>
<g id="a_node15"><a xlink:href="src/server/start.ts" xlink:title="start.ts">
<path fill="#ddfeff" stroke="black" d="M72,-108C72,-108 30,-108 30,-108 27,-108 24,-105 24,-102 24,-102 24,-96 24,-96 24,-93 27,-90 30,-90 30,-90 72,-90 72,-90 75,-90 78,-93 78,-96 78,-96 78,-102 78,-102 78,-105 75,-108 72,-108"/>
<text text-anchor="start" x="34.5" y="-96.8" font-family="Helvetica,sans-Serif" font-size="9.00">start.ts</text>
</a>
</g>
</g>
<!-- src/server/start.ts&#45;&gt;src/library/express.ts -->
<g id="edge12" class="edge">
<title>src/server/start.ts&#45;&gt;src/library/express.ts</title>
<path fill="none" stroke="#000000" stroke-width="2" stroke-opacity="0.200000" d="M53.93,-90C58.02,-73.43 69.28,-38.49 94,-24 142.31,4.32 168.69,-1.57 220,-24 241.12,-33.23 257.78,-54.91 267.14,-69.51"/>
<polygon fill="#000000" fill-opacity="0.200000" stroke="#000000" stroke-width="2" stroke-opacity="0.200000" points="265.54,-70.91 270.48,-74.91 269.11,-68.71 265.54,-70.91"/>
</g>
<!-- src/server/start.ts&#45;&gt;src/library/apollo.ts -->
<g id="edge11" class="edge">
<title>src/server/start.ts&#45;&gt;src/library/apollo.ts</title>
<path fill="none" stroke="#000000" stroke-width="2" stroke-opacity="0.200000" d="M54.48,-108.25C59.28,-124.28 71.41,-157.11 94,-174 103.7,-181.25 116.28,-185.09 127.86,-187.1"/>
<polygon fill="#000000" fill-opacity="0.200000" stroke="#000000" stroke-width="2" stroke-opacity="0.200000" points="127.55,-189.18 133.8,-187.99 128.17,-185.02 127.55,-189.18"/>
</g>
<!-- src/server/start.ts&#45;&gt;src/library/express&#45;middleware.ts -->
<g id="edge13" class="edge">
<title>src/server/start.ts&#45;&gt;src/library/express&#45;middleware.ts</title>
<path fill="none" stroke="#000000" stroke-width="2" stroke-opacity="0.200000" d="M78.14,-99C83.57,-99 89.52,-99 95.66,-99"/>
<polygon fill="#000000" fill-opacity="0.200000" stroke="#000000" stroke-width="2" stroke-opacity="0.200000" points="95.84,-101.1 101.84,-99 95.84,-96.9 95.84,-101.1"/>
</g>
</g>
</svg>
